HIERARCHY
ROOT joint_Root
{
	OFFSET 0.0 0.0 0.0
	CHANNELS 6 Xposition Yposition Zposition Zrotation Xrotation Yrotation 
	JOINT Hips
	{
		OFFSET 4.5925 91.4895 -427.239
		CHANNELS 6 Xposition Yposition Zposition Zrotation Xrotation Yrotation 
		JOINT Spine
		{
			OFFSET 15.7357 0.0 0.0
			CHANNELS 6 Xposition Yposition Zposition Zrotation Xrotation Yrotation 
			JOINT Chest
			{
				OFFSET 8.98455 -0.406207 0.0
				CHANNELS 6 Xposition Yposition Zposition Zrotation Xrotation Yrotation 
				JOINT Neck
				{
					OFFSET 16.3773 0.0 0.0
					CHANNELS 6 Xposition Yposition Zposition Zrotation Xrotation Yrotation 
					JOINT Head
					{
						OFFSET 6.45672 0.0 0.0
						CHANNELS 6 Xposition Yposition Zposition Zrotation Xrotation Yrotation 
						End Site
						{
							OFFSET 0.0 0.0 0.0
						}
					}
				}
				JOINT Shoulder_L
				{
					OFFSET 12.9942 -0.242716 4.98039
					CHANNELS 6 Xposition Yposition Zposition Zrotation Xrotation Yrotation 
					JOINT UpperArm_L
					{
						OFFSET 5.34809 0.0 0.0
						CHANNELS 6 Xposition Yposition Zposition Zrotation Xrotation Yrotation 
						JOINT LowerArm_L
						{
							OFFSET 24.3286 1.87007e-05 0.0
							CHANNELS 6 Xposition Yposition Zposition Zrotation Xrotation Yrotation 
							JOINT Hand_L
							{
								OFFSET 22.2916 0.0 0.0
								CHANNELS 6 Xposition Yposition Zposition Zrotation Xrotation Yrotation 
								End Site
								{
									OFFSET 0.0 0.0 0.0
								}
							}
						}
					}
				}
				JOINT Shoulder_R
				{
					OFFSET 12.9945 -0.242716 -4.98039
					CHANNELS 6 Xposition Yposition Zposition Zrotation Xrotation Yrotation 
					JOINT UpperArm_R
					{
						OFFSET -5.34813 0.0 0.0
						CHANNELS 6 Xposition Yposition Zposition Zrotation Xrotation Yrotation 
						JOINT LowerArm_R
						{
							OFFSET -24.3289 0.000322201 0.0
							CHANNELS 6 Xposition Yposition Zposition Zrotation Xrotation Yrotation 
							JOINT Hand_R
							{
								OFFSET -22.2915 -0.000108084 0.0
								CHANNELS 6 Xposition Yposition Zposition Zrotation Xrotation Yrotation 
								End Site
								{
									OFFSET 0.0 0.0 0.0
								}
							}
						}
					}
				}
			}
		}
		JOINT UpperLeg_L
		{
			OFFSET -2.19248 -6.46944 0.0
			CHANNELS 6 Xposition Yposition Zposition Zrotation Xrotation Yrotation 
			JOINT LowerLeg_L
			{
				OFFSET 39.0811 0.0 -1.23785e-05
				CHANNELS 6 Xposition Yposition Zposition Zrotation Xrotation Yrotation 
				JOINT Foot_L
				{
					OFFSET 40.9854 0.0 -1.26872e-05
					CHANNELS 6 Xposition Yposition Zposition Zrotation Xrotation Yrotation 
					JOINT Toes_L
					{
						OFFSET 11.7543 0.0 0.0
						CHANNELS 6 Xposition Yposition Zposition Zrotation Xrotation Yrotation 
						End Site
						{
							OFFSET 0.0 0.0 0.0
						}
					}
				}
			}
		}
		JOINT UpperLeg_R
		{
			OFFSET -2.19251 6.46944 0.0
			CHANNELS 6 Xposition Yposition Zposition Zrotation Xrotation Yrotation 
			JOINT LowerLeg_R
			{
				OFFSET -39.0811 -0.00228153 -0.0401928
				CHANNELS 6 Xposition Yposition Zposition Zrotation Xrotation Yrotation 
				JOINT Foot_R
				{
					OFFSET -40.9854 0.0 0.0
					CHANNELS 6 Xposition Yposition Zposition Zrotation Xrotation Yrotation 
					JOINT Toes_R
					{
						OFFSET -11.7543 0.0 0.0
						CHANNELS 6 Xposition Yposition Zposition Zrotation Xrotation Yrotation 
						End Site
						{
							OFFSET 0.0 0.0 0.0
						}
					}
				}
			}
		}
	}
}
MOTION
Frames:	7
Frame Time:	0.0333333
0.000000 0.000000 0.000000 0.000000 0.000000 -0.000000 4.496060 86.014500 -370.246000 92.673700 -14.599800 -13.573500 15.735700 0.000005 -0.000001 125.507000 81.287000 -126.984000 8.984550 -0.406207 -0.000000 6.631390 10.104900 -3.543410 16.377300 -0.000001 -0.000001 -0.081470 -0.108318 2.480840 6.456720 -0.000001 -0.000000 -5.096780 -2.819230 -1.568020 12.994200 -0.242716 4.980390 -88.509500 -3.258760 -65.414500 5.348090 -0.000007 -0.000001 -49.608300 34.421500 21.513200 24.328600 0.000019 0.000005 14.541000 17.928000 -40.128900 22.291600 -0.000001 0.000005 -13.571500 5.491400 -6.190320 12.994500 -0.242716 -4.980390 90.752600 -6.230510 -83.101800 -5.348130 -0.000001 -0.000004 -54.397300 23.592700 -57.692100 -24.328900 0.000322 -0.000009 -2.851260 1.083520 -110.838000 -22.291500 -0.000108 -0.000004 11.127400 5.500420 -6.506640 -2.192480 -6.469440 -0.000000 168.633000 -1.014450 -64.227000 39.081100 -0.000007 -0.000012 -0.266876 -0.093435 109.297000 40.985400 -0.000006 -0.000013 10.783000 -11.352000 -47.102000 11.754300 -0.000000 0.000003 -0.004034 -0.051806 -18.684100 -2.192510 6.469440 -0.000001 171.354000 12.353300 173.772000 -39.081100 -0.002282 -0.040193 0.011982 -0.011459 37.196000 -40.985400 0.000008 0.000006 7.406620 14.741600 -73.852400 -11.754300 -0.000006 -0.000006 -0.146657 -0.548096 -39.732700
0.000000 0.000000 0.000000 0.000000 0.000000 -0.000000 4.590500 90.286200 -360.177000 92.990300 -14.868500 -15.000700 15.735700 0.000005 -0.000001 133.801000 81.388400 -136.049000 8.984550 -0.406207 -0.000000 4.991440 11.953100 -5.026370 16.377300 -0.000001 -0.000001 1.147410 -1.448650 2.220460 6.456720 -0.000001 -0.000000 -5.209630 -5.229670 -0.431382 12.994200 -0.242716 4.980390 -86.055300 -8.445690 -64.849300 5.348090 -0.000007 -0.000001 -53.060000 32.724200 29.015000 24.328600 0.000019 0.000005 15.799900 15.842500 -46.022400 22.291600 -0.000001 0.000005 -14.628000 5.505910 -6.778200 12.994500 -0.242716 -4.980390 91.476600 -9.521980 -81.144900 -5.348130 -0.000001 -0.000004 -53.189200 23.954300 -60.447800 -24.328900 0.000322 -0.000009 0.126436 -0.063873 -116.738000 -22.291500 -0.000108 -0.000004 7.483990 5.450750 -4.661630 -2.192480 -6.469440 -0.000000 169.881000 1.715150 -62.542000 39.081100 -0.000007 -0.000012 -0.031906 -0.002422 94.358300 40.985400 -0.000006 -0.000013 11.617700 -11.696100 -58.404900 11.754300 -0.000000 0.000003 -0.003781 -0.049146 -18.575800 -2.192510 6.469440 -0.000001 167.791000 19.796600 -179.811000 -39.081100 -0.002282 -0.040193 0.063247 -0.123390 25.908400 -40.985400 0.000008 0.000006 4.164750 22.922000 -47.362200 -11.754300 -0.000006 -0.000006 -0.289741 -0.776745 -50.685300
0.000000 0.000000 0.000000 0.000000 0.000000 -0.000000 4.291630 93.489800 -349.998000 90.928800 -14.849800 -13.948300 15.735700 0.000005 -0.000001 135.809000 80.588100 -137.976000 8.984550 -0.406207 -0.000000 5.741300 13.503700 -5.025170 16.377300 -0.000001 -0.000001 2.627950 -1.963240 1.864700 6.456720 -0.000001 -0.000000 -6.914010 -7.210430 0.849959 12.994200 -0.242716 4.980390 -83.436600 -13.700800 -64.092000 5.348090 -0.000007 -0.000001 -59.125800 32.078300 34.874300 24.328600 0.000019 0.000005 20.004700 16.237100 -52.473700 22.291600 -0.000001 0.000005 -15.099000 5.518110 -7.281850 12.994500 -0.242716 -4.980390 92.034200 -10.569700 -79.041700 -5.348130 -0.000001 -0.000004 -49.438800 23.673100 -64.180400 -24.328900 0.000322 -0.000009 -0.357628 0.196120 -118.745000 -22.291500 -0.000108 -0.000004 7.589260 5.430000 -3.939970 -2.192480 -6.469440 -0.000000 174.106000 1.748910 -57.195700 39.081100 -0.000007 -0.000012 0.076281 -0.013191 80.183900 40.985400 -0.000006 -0.000013 7.611220 -1.719860 -65.376800 11.754300 -0.000000 0.000003 -0.003170 -0.042521 -18.306100 -2.192510 6.469440 -0.000001 162.860000 30.153100 -171.125000 -39.081100 -0.002282 -0.040193 0.115110 -0.340339 18.183100 -40.985400 0.000008 0.000006 -10.816500 25.951000 -23.148400 -11.754300 -0.000006 -0.000006 -0.018090 -0.156470 -22.962500
0.000000 0.000000 0.000000 0.000000 0.000000 -0.000000 3.942510 95.461600 -340.313000 90.459900 -15.456400 -15.053000 15.735700 0.000005 -0.000001 138.470000 80.691800 -141.063000 8.984550 -0.406207 -0.000000 5.020130 13.972400 -5.815940 16.377300 -0.000001 -0.000001 3.270750 -1.896540 1.288480 6.456720 -0.000001 -0.000000 -7.146710 -8.041370 1.807130 12.994200 -0.242716 4.980390 -81.182500 -17.443200 -62.639900 5.348090 -0.000007 -0.000001 -64.812300 30.733500 39.960700 24.328600 0.000019 0.000005 20.152300 13.568800 -57.411400 22.291600 -0.000001 0.000005 -15.765000 5.510150 -6.947540 12.994500 -0.242716 -4.980390 92.383300 -11.156800 -77.860300 -5.348130 -0.000001 -0.000004 -46.054700 22.917200 -67.391100 -24.328900 0.000322 -0.000009 0.277472 -0.149611 -118.352000 -22.291500 -0.000108 -0.000004 7.487100 5.416540 -3.482680 -2.192480 -6.469440 -0.000000 175.643000 0.320933 -53.968700 39.081100 -0.000007 -0.000012 0.042082 -0.019406 65.237300 40.985400 -0.000006 -0.000013 3.161370 5.575390 -68.778200 11.754300 -0.000000 0.000003 -0.003326 -0.044240 -18.376100 -2.192510 6.469440 -0.000001 159.801000 31.466300 -168.998000 -39.081100 -0.002282 -0.040193 0.190920 -0.465597 21.946200 -40.985400 0.000008 0.000006 -8.138330 20.472800 -24.365200 -11.754300 -0.000006 -0.000006 -0.013904 -0.130800 -21.908100
0.000000 0.000000 0.000000 0.000000 0.000000 -0.000000 3.407530 96.165600 -330.657000 89.277500 -15.230700 -14.780400 15.735700 0.000005 -0.000001 138.042000 80.663200 -140.583000 8.984550 -0.406207 -0.000000 5.156180 13.917000 -5.725450 16.377300 -0.000001 -0.000001 3.708480 -1.617870 0.596574 6.456720 -0.000001 -0.000000 -7.267600 -8.694710 2.775520 12.994200 -0.242716 4.980390 -80.374200 -18.418300 -61.773400 5.348090 -0.000007 -0.000001 -67.137800 28.361400 42.693800 24.328600 0.000019 0.000005 19.204000 11.047900 -61.182900 22.291600 -0.000001 0.000005 -16.456000 5.497920 -6.449350 12.994500 -0.242716 -4.980390 92.326500 -10.385900 -77.299900 -5.348130 -0.000001 -0.000004 -43.658800 22.904800 -69.093800 -24.328900 0.000322 -0.000009 2.217000 -1.113850 -116.669000 -22.291500 -0.000108 -0.000004 6.456520 5.405290 -3.107200 -2.192480 -6.469440 -0.000000 176.448000 -2.311190 -48.996300 39.081100 -0.000007 -0.000012 0.007235 -0.005981 50.404100 40.985400 -0.000006 -0.000013 1.200320 5.496140 -71.567400 11.754300 -0.000000 0.000003 -0.003648 -0.047739 -18.518500 -2.192510 6.469440 -0.000001 159.922000 26.312500 -167.576000 -39.081100 -0.002282 -0.040193 0.279046 -0.507369 28.523400 -40.985400 0.000008 0.000006 -4.472580 15.100700 -24.868900 -11.754300 -0.000006 -0.000006 -0.012568 -0.121919 -21.544000
0.000000 0.000000 0.000000 0.000000 0.000000 -0.000000 2.833660 95.820900 -320.969000 88.174200 -14.693500 -14.469500 15.735700 0.000005 -0.000001 136.936000 80.649500 -139.432000 8.984550 -0.406207 -0.000000 5.430770 13.684600 -5.655540 16.377300 -0.000001 -0.000001 3.587440 -1.397640 0.366370 6.456720 -0.000001 -0.000000 -6.970050 -9.192380 3.901220 12.994200 -0.242716 4.980390 -80.546800 -17.487800 -61.009800 5.348090 -0.000007 -0.000001 -66.870000 25.846100 41.367000 24.328600 0.000019 0.000005 20.339500 10.400000 -64.034100 22.291600 -0.000001 0.000005 -15.972100 5.495330 -6.347070 12.994500 -0.242716 -4.980390 92.073200 -9.593510 -77.745100 -5.348130 -0.000001 -0.000004 -44.178900 24.787300 -67.065300 -24.328900 0.000322 -0.000009 3.296660 -1.543380 -115.062000 -22.291500 -0.000108 -0.000004 6.262130 5.403890 -3.063920 -2.192480 -6.469440 -0.000000 176.093000 -5.791780 -43.982500 39.081100 -0.000007 -0.000012 0.004099 -0.005709 35.670300 40.985400 -0.000006 -0.000013 1.902300 1.934380 -74.006800 11.754300 -0.000000 0.000003 -0.003798 -0.049332 -18.583400 -2.192510 6.469440 -0.000001 162.363000 18.993900 -167.094000 -39.081100 -0.002282 -0.040193 0.354238 -0.488794 35.678600 -40.985400 0.000008 0.000006 -4.237490 12.145500 -23.440500 -11.754300 -0.000006 -0.000006 -0.012187 -0.119310 -21.437100
0.000000 0.000000 0.000000 0.000000 0.000000 -0.000000 2.141670 94.407200 -311.125000 87.345300 -13.714300 -13.247400 15.735700 0.000005 -0.000001 134.458000 80.364600 -137.007000 8.984550 -0.406207 -0.000000 6.434090 13.488800 -5.873030 16.377300 -0.000001 -0.000001 3.202140 -1.649500 0.762148 6.456720 -0.000001 -0.000000 -6.737450 -9.467050 5.183140 12.994200 -0.242716 4.980390 -81.626400 -15.401600 -61.003300 5.348090 -0.000007 -0.000001 -64.919300 23.147200 37.472900 24.328600 0.000019 0.000005 24.006900 10.389100 -67.953100 22.291600 -0.000001 0.000005 -13.819400 5.495690 -6.359450 12.994500 -0.242716 -4.980390 91.718700 -8.693990 -78.773100 -5.348130 -0.000001 -0.000004 -48.032900 28.198700 -60.622800 -24.328900 0.000322 -0.000009 2.479850 -1.084330 -113.599000 -22.291500 -0.000108 -0.000004 7.531610 5.418240 -3.536070 -2.192480 -6.469440 -0.000000 174.956000 -9.941180 -39.250300 39.081100 -0.000007 -0.000012 0.000767 -0.001659 24.808100 40.985400 -0.000006 -0.000013 0.728415 -0.876805 -75.525300 11.754300 -0.000000 0.000003 -0.004281 -0.054343 -18.787400 -2.192510 6.469440 -0.000001 165.279000 12.698600 -166.243000 -39.081100 -0.002282 -0.040193 0.426808 -0.436599 44.131000 -40.985400 0.000008 0.000006 -5.598340 11.404300 -20.562400 -11.754300 -0.000006 -0.000006 -0.011465 -0.114276 -21.231000
